<?xml version="1.0" standalone="no"?>
<!DOCTYPE svg PUBLIC "-//W3C//DTD SVG 20010904//EN"
 "http://www.w3.org/TR/2001/REC-SVG-20010904/DTD/svg10.dtd">
<svg version="1.0" xmlns="http://www.w3.org/2000/svg"
 width="700.000000pt" height="700.000000pt" viewBox="0 0 700.000000 700.000000"
 preserveAspectRatio="xMidYMid meet">
<metadata>
Created by potrace 1.14, written by Peter Selinger 2001-2017
</metadata>
<g transform="translate(0.000000,700.000000) scale(0.100000,-0.100000)"
fill="#000000" stroke="none">
<path d="M0 3500 l0 -3500 3500 0 3500 0 0 3500 0 3500 -3500 0 -3500 0 0
-3500z m2545 2005 c369 -44 704 -154 889 -294 l66 -50 66 50 c123 93 347 187
558 235 272 62 432 78 761 78 453 -1 767 -54 1067 -180 98 -42 268 -143 296
-177 9 -11 11 -442 10 -1851 l-3 -1836 -68 49 c-181 132 -475 232 -842 288
-99 15 -182 18 -475 18 -315 -1 -371 -3 -495 -23 -353 -55 -641 -158 -818
-291 -55 -42 -58 -43 -80 -27 -226 166 -472 257 -858 318 -129 20 -181 22
-499 23 -323 0 -368 -2 -505 -23 -350 -55 -635 -156 -810 -287 l-60 -45 -3
1837 -2 1838 37 32 c210 179 643 307 1138 337 120 7 503 -4 630 -19z"/>
<path d="M3580 4853 c-51 -20 -67 -82 -55 -206 7 -70 9 -73 56 -117 l49 -45 0
-127 c0 -78 -4 -128 -10 -130 -7 -2 -12 -73 -13 -193 l-2 -190 60 0 60 0 -2
190 c-1 121 -6 191 -13 193 -6 2 -10 52 -10 133 l0 130 41 38 c39 35 41 41 50
117 11 93 4 156 -21 187 -15 19 -29 22 -97 24 -43 1 -85 0 -93 -4z m20 -157
c0 -63 -4 -117 -9 -120 -14 -9 -21 33 -21 137 0 80 3 97 15 97 12 0 15 -19 15
-114z m70 -3 c0 -69 -4 -113 -10 -113 -6 0 -10 35 -11 83 -1 93 -16 72 -18
-25 -1 -32 -5 -58 -11 -58 -6 0 -10 44 -10 113 l0 114 30 0 30 0 0 -114z m40
3 c0 -119 -13 -160 -24 -79 -8 60 -8 178 1 186 18 19 23 -3 23 -107z m38 48
c4 -73 -6 -164 -19 -164 -5 0 -9 51 -9 116 0 88 3 115 13 112 7 -3 13 -28 15
-64z"/>
<path d="M1596 4483 c-3 -3 -6 -150 -6 -325 l0 -318 85 0 c47 0 85 3 85 8 0 4
1 100 3 213 2 191 4 209 22 229 16 18 27 21 61 16 39 -5 43 -3 94 49 32 33 51
59 47 68 -3 8 -25 24 -49 35 -35 17 -69 22 -189 26 -80 3 -149 3 -153 -1z"/>
<path d="M3133 4480 c-240 -50 -336 -345 -171 -525 77 -85 179 -121 288 -104
56 9 131 43 157 71 16 18 14 22 -45 80 -60 61 -62 62 -81 44 -29 -27 -100 -32
-145 -11 -54 26 -80 69 -80 130 0 112 107 178 210 129 31 -15 35 -15 61 4 15
11 43 36 62 56 34 35 34 36 16 56 -49 54 -182 89 -272 70z"/>
<path d="M3955 4481 c-3 -2 -5 -233 -5 -513 l0 -509 88 3 87 3 2 199 c1 109 3
200 5 201 2 2 32 -3 68 -12 247 -57 456 180 373 423 -23 70 -120 165 -191 188
-58 19 -163 23 -206 6 -34 -13 -59 -13 -51 -1 3 5 -3 12 -12 15 -22 6 -152 4
-158 -3z m397 -196 c68 -46 86 -147 37 -209 -61 -78 -188 -73 -239 9 -25 41
-27 120 -3 155 49 72 137 91 205 45z"/>
<path d="M2272 4459 c-116 -45 -194 -166 -194 -302 1 -275 346 -415 564 -229
19 16 22 10 -64 115 l-23 28 -55 -25 c-30 -14 -68 -26 -85 -26 -37 0 -75 10
-75 20 0 6 272 125 348 151 17 6 32 16 32 22 0 24 -58 135 -89 170 -18 20 -60
50 -93 67 -53 26 -72 30 -137 29 -51 0 -93 -7 -129 -20z m172 -159 c14 -5 26
-14 26 -19 0 -11 -198 -96 -206 -88 -3 3 2 21 11 41 30 63 103 92 169 66z"/>
<path d="M4960 4463 c-70 -25 -161 -122 -184 -197 -23 -74 -18 -175 12 -238
30 -61 97 -126 162 -157 46 -21 69 -26 140 -25 75 0 93 3 151 31 36 18 73 41
83 52 18 19 17 21 -35 80 -29 34 -55 61 -56 61 -2 0 -20 -9 -40 -20 -21 -11
-52 -23 -70 -26 -37 -7 -103 3 -103 15 0 5 86 44 190 87 105 43 190 84 190 91
0 28 -50 123 -85 161 -20 23 -64 55 -97 72 -53 26 -72 30 -137 29 -42 0 -96
-8 -121 -16z m169 -164 c17 -6 31 -14 31 -18 0 -10 -209 -95 -216 -88 -15 14
50 97 86 110 25 9 65 8 99 -4z"/>
<path d="M1630 2700 l0 -321 88 3 87 3 5 203 5 204 28 24 c51 44 135 28 166
-33 7 -14 11 -92 11 -212 l0 -191 84 0 c67 0 85 3 90 16 3 9 6 99 6 201 l0
185 29 29 c51 50 137 36 170 -28 7 -14 11 -92 11 -212 l0 -191 85 0 c83 0 85
1 91 26 4 14 4 108 2 207 -6 217 -18 259 -100 332 -93 84 -214 96 -328 33
l-56 -31 -40 27 c-56 37 -139 53 -201 39 -29 -7 -52 -8 -57 -2 -6 5 -47 9 -93
9 l-83 0 0 -320z"/>
<path d="M3015 3011 c-103 -28 -178 -90 -221 -184 -71 -158 -4 -341 154 -419
40 -19 63 -23 147 -23 89 0 106 3 155 27 30 16 66 36 78 46 l24 18 -57 67 -57
67 -28 -20 c-46 -33 -169 -46 -185 -20 -3 5 30 22 72 40 241 99 299 124 307
131 13 11 -46 130 -87 176 -69 76 -208 119 -302 94z m131 -185 c10 -8 17 -16
14 -18 -11 -10 -204 -87 -207 -84 -11 11 14 60 43 86 28 24 44 30 82 30 27 0
57 -6 68 -14z"/>
<path d="M3580 2700 l0 -320 85 0 85 0 0 173 c0 94 5 189 10 209 27 94 155
108 199 21 7 -14 11 -92 11 -212 l0 -191 85 0 85 0 0 180 c0 194 8 233 51 264
31 21 98 20 125 -2 40 -32 44 -54 44 -251 l0 -191 85 0 85 0 0 213 c0 201 -1
215 -24 262 -31 67 -100 127 -172 150 -75 23 -149 15 -224 -27 l-57 -31 -29
20 c-64 45 -149 62 -227 44 -21 -5 -39 -5 -43 0 -3 5 -43 9 -90 9 l-84 0 0
-320z"/>
<path d="M4950 3007 c-141 -40 -233 -160 -234 -307 -1 -66 3 -84 32 -143 33
-67 81 -115 152 -153 27 -15 57 -19 130 -19 111 0 161 19 229 88 63 63 85 117
89 215 4 77 2 88 -27 147 -69 140 -227 213 -371 172z m170 -193 c106 -90 64
-243 -72 -260 -149 -18 -219 183 -92 267 45 29 124 26 164 -7z"/>
</g>
</svg>
