<svg width="377" height="42" viewBox="0 0 377 42" fill="none" xmlns="http://www.w3.org/2000/svg">
<path d="M40 0H374C375.657 0 377 1.34315 377 3V39C377 40.6569 375.657 42 374 42H40V0Z" fill="#3367D6"/>
<path d="M133.456 28V16.144H135.824V26.016H140.64V28H133.456ZM145.946 28.224C145.199 28.224 144.495 28.0373 143.834 27.664C143.183 27.2907 142.655 26.7573 142.25 26.064C141.844 25.36 141.642 24.512 141.642 23.52C141.642 22.528 141.844 21.6853 142.25 20.992C142.655 20.288 143.183 19.7493 143.834 19.376C144.495 19.0027 145.199 18.816 145.946 18.816C146.511 18.816 147.05 18.9227 147.562 19.136C148.074 19.3493 148.532 19.6587 148.938 20.064C149.343 20.4587 149.663 20.9493 149.898 21.536C150.132 22.112 150.25 22.7733 150.25 23.52C150.25 24.512 150.047 25.36 149.642 26.064C149.236 26.7573 148.703 27.2907 148.042 27.664C147.391 28.0373 146.692 28.224 145.946 28.224ZM145.946 26.304C146.351 26.304 146.692 26.192 146.97 25.968C147.258 25.7333 147.471 25.408 147.61 24.992C147.759 24.576 147.834 24.0853 147.834 23.52C147.834 22.9547 147.759 22.464 147.61 22.048C147.471 21.632 147.258 21.312 146.97 21.088C146.692 20.8533 146.351 20.736 145.946 20.736C145.54 20.736 145.194 20.8533 144.906 21.088C144.628 21.312 144.415 21.632 144.266 22.048C144.127 22.464 144.058 22.9547 144.058 23.52C144.058 24.0853 144.127 24.576 144.266 24.992C144.415 25.408 144.628 25.7333 144.906 25.968C145.194 26.192 145.54 26.304 145.946 26.304ZM155.369 31.888C154.665 31.888 154.03 31.8027 153.465 31.632C152.9 31.472 152.452 31.2213 152.121 30.88C151.801 30.5493 151.641 30.1173 151.641 29.584C151.641 29.2107 151.748 28.864 151.961 28.544C152.174 28.224 152.494 27.952 152.921 27.728V27.648C152.686 27.4987 152.489 27.3013 152.329 27.056C152.18 26.8107 152.105 26.5013 152.105 26.128C152.105 25.7973 152.201 25.488 152.393 25.2C152.596 24.9013 152.83 24.656 153.097 24.464V24.4C152.788 24.176 152.51 23.8613 152.265 23.456C152.02 23.0507 151.897 22.5813 151.897 22.048C151.897 21.344 152.062 20.752 152.393 20.272C152.734 19.792 153.182 19.4293 153.737 19.184C154.292 18.9387 154.878 18.816 155.497 18.816C155.764 18.816 156.009 18.8373 156.233 18.88C156.468 18.9227 156.681 18.976 156.873 19.04H160.089V20.768H158.569C158.686 20.928 158.782 21.1253 158.857 21.36C158.932 21.5947 158.969 21.8507 158.969 22.128C158.969 22.8 158.814 23.3653 158.505 23.824C158.196 24.272 157.78 24.608 157.257 24.832C156.734 25.056 156.148 25.168 155.497 25.168C155.337 25.168 155.156 25.152 154.953 25.12C154.75 25.0773 154.548 25.024 154.345 24.96C154.228 25.0667 154.132 25.1787 154.057 25.296C153.993 25.4027 153.961 25.552 153.961 25.744C153.961 25.968 154.062 26.144 154.265 26.272C154.478 26.4 154.846 26.464 155.369 26.464H156.905C157.982 26.464 158.809 26.6453 159.385 27.008C159.961 27.36 160.249 27.9253 160.249 28.704C160.249 29.312 160.046 29.8507 159.641 30.32C159.246 30.8 158.681 31.1787 157.945 31.456C157.22 31.744 156.361 31.888 155.369 31.888ZM155.497 23.712C155.764 23.712 156.004 23.648 156.217 23.52C156.43 23.392 156.601 23.2053 156.729 22.96C156.857 22.704 156.921 22.4 156.921 22.048C156.921 21.696 156.857 21.4027 156.729 21.168C156.601 20.9227 156.43 20.7413 156.217 20.624C156.004 20.496 155.764 20.432 155.497 20.432C155.241 20.432 155.006 20.496 154.793 20.624C154.58 20.7413 154.409 20.9227 154.281 21.168C154.164 21.4027 154.105 21.696 154.105 22.048C154.105 22.4 154.164 22.704 154.281 22.96C154.409 23.2053 154.58 23.392 154.793 23.52C155.006 23.648 155.241 23.712 155.497 23.712ZM155.721 30.384C156.18 30.384 156.574 30.3253 156.905 30.208C157.246 30.0907 157.513 29.936 157.705 29.744C157.897 29.552 157.993 29.3387 157.993 29.104C157.993 28.784 157.865 28.5653 157.609 28.448C157.353 28.3413 156.985 28.288 156.505 28.288H155.401C155.134 28.288 154.905 28.2773 154.713 28.256C154.521 28.2453 154.34 28.2187 154.169 28.176C153.966 28.336 153.817 28.5013 153.721 28.672C153.636 28.8533 153.593 29.04 153.593 29.232C153.593 29.5947 153.785 29.8773 154.169 30.08C154.553 30.2827 155.07 30.384 155.721 30.384ZM161.764 28V19.04H164.116V28H161.764ZM162.948 17.584C162.532 17.584 162.201 17.472 161.956 17.248C161.711 17.0133 161.588 16.6987 161.588 16.304C161.588 15.92 161.711 15.6107 161.956 15.376C162.201 15.1413 162.532 15.024 162.948 15.024C163.343 15.024 163.668 15.1413 163.924 15.376C164.18 15.6107 164.308 15.92 164.308 16.304C164.308 16.6987 164.18 17.0133 163.924 17.248C163.668 17.472 163.343 17.584 162.948 17.584ZM166.623 28V19.04H168.543L168.719 20.224H168.767C169.162 19.84 169.594 19.5093 170.063 19.232C170.533 18.9547 171.071 18.816 171.679 18.816C172.65 18.816 173.354 19.136 173.791 19.776C174.229 20.4053 174.447 21.2853 174.447 22.416V28H172.095V22.704C172.095 22.0107 171.994 21.5253 171.791 21.248C171.599 20.9707 171.279 20.832 170.831 20.832C170.469 20.832 170.149 20.9173 169.871 21.088C169.605 21.2587 169.306 21.5093 168.975 21.84V28H166.623ZM181.986 28L179.682 19.04H182.018L183.01 23.456C183.085 23.904 183.154 24.3413 183.218 24.768C183.282 25.1947 183.352 25.632 183.426 26.08H183.506C183.602 25.632 183.693 25.1947 183.778 24.768C183.864 24.3307 183.96 23.8933 184.066 23.456L185.154 19.04H187.234L188.354 23.456C188.461 23.904 188.557 24.3413 188.642 24.768C188.728 25.1947 188.824 25.632 188.93 26.08H188.994C189.08 25.632 189.154 25.1947 189.218 24.768C189.293 24.3413 189.373 23.904 189.458 23.456L190.402 19.04H192.594L190.386 28H187.618L186.674 24.096C186.578 23.6693 186.488 23.248 186.402 22.832C186.328 22.4053 186.242 21.952 186.146 21.472H186.066C185.992 21.952 185.917 22.4053 185.842 22.832C185.768 23.2587 185.682 23.68 185.586 24.096L184.674 28H181.986ZM194.311 28V19.04H196.663V28H194.311ZM195.495 17.584C195.079 17.584 194.748 17.472 194.503 17.248C194.258 17.0133 194.135 16.6987 194.135 16.304C194.135 15.92 194.258 15.6107 194.503 15.376C194.748 15.1413 195.079 15.024 195.495 15.024C195.89 15.024 196.215 15.1413 196.471 15.376C196.727 15.6107 196.855 15.92 196.855 16.304C196.855 16.6987 196.727 17.0133 196.471 17.248C196.215 17.472 195.89 17.584 195.495 17.584ZM202.45 28.224C201.746 28.224 201.176 28.0853 200.738 27.808C200.301 27.52 199.986 27.1253 199.794 26.624C199.602 26.1227 199.506 25.5413 199.506 24.88V20.896H198.242V19.152L199.634 19.04L199.906 16.624H201.842V19.04H204.066V20.896H201.842V24.864C201.842 25.376 201.949 25.7547 202.162 26C202.376 26.2453 202.68 26.368 203.074 26.368C203.224 26.368 203.378 26.3467 203.538 26.304C203.698 26.2613 203.837 26.2187 203.954 26.176L204.354 27.888C204.109 27.9627 203.826 28.0373 203.506 28.112C203.197 28.1867 202.845 28.224 202.45 28.224ZM205.905 28V15.232H208.257V18.448L208.145 20.128C208.497 19.7867 208.902 19.4827 209.361 19.216C209.819 18.9493 210.353 18.816 210.961 18.816C211.931 18.816 212.635 19.136 213.073 19.776C213.51 20.4053 213.729 21.2853 213.729 22.416V28H211.377V22.704C211.377 22.0107 211.275 21.5253 211.073 21.248C210.881 20.9707 210.561 20.832 210.113 20.832C209.75 20.832 209.43 20.9173 209.153 21.088C208.886 21.2587 208.587 21.5093 208.257 21.84V28H205.905ZM225.044 28.224C223.977 28.224 223.012 27.9893 222.148 27.52C221.295 27.0507 220.617 26.3627 220.116 25.456C219.615 24.5493 219.364 23.44 219.364 22.128C219.364 21.1467 219.508 20.2773 219.796 19.52C220.095 18.752 220.505 18.1013 221.028 17.568C221.551 17.0347 222.153 16.6293 222.836 16.352C223.519 16.0747 224.255 15.936 225.044 15.936C225.897 15.936 226.623 16.096 227.22 16.416C227.828 16.7253 228.324 17.072 228.708 17.456L227.444 18.96C227.145 18.6827 226.815 18.448 226.452 18.256C226.1 18.064 225.657 17.968 225.124 17.968C224.463 17.968 223.881 18.1333 223.38 18.464C222.879 18.784 222.489 19.248 222.212 19.856C221.935 20.464 221.796 21.1947 221.796 22.048C221.796 22.912 221.924 23.6533 222.18 24.272C222.447 24.88 222.841 25.3493 223.364 25.68C223.887 26.0107 224.532 26.176 225.3 26.176C225.588 26.176 225.865 26.1387 226.132 26.064C226.399 25.9787 226.612 25.8667 226.772 25.728V23.392H224.676V21.456H228.9V26.8C228.495 27.1947 227.956 27.5307 227.284 27.808C226.612 28.0853 225.865 28.224 225.044 28.224ZM234.977 28.224C234.23 28.224 233.526 28.0373 232.865 27.664C232.214 27.2907 231.686 26.7573 231.281 26.064C230.875 25.36 230.673 24.512 230.673 23.52C230.673 22.528 230.875 21.6853 231.281 20.992C231.686 20.288 232.214 19.7493 232.865 19.376C233.526 19.0027 234.23 18.816 234.977 18.816C235.542 18.816 236.081 18.9227 236.593 19.136C237.105 19.3493 237.563 19.6587 237.969 20.064C238.374 20.4587 238.694 20.9493 238.929 21.536C239.163 22.112 239.281 22.7733 239.281 23.52C239.281 24.512 239.078 25.36 238.673 26.064C238.267 26.7573 237.734 27.2907 237.073 27.664C236.422 28.0373 235.723 28.224 234.977 28.224ZM234.977 26.304C235.382 26.304 235.723 26.192 236.001 25.968C236.289 25.7333 236.502 25.408 236.641 24.992C236.79 24.576 236.865 24.0853 236.865 23.52C236.865 22.9547 236.79 22.464 236.641 22.048C236.502 21.632 236.289 21.312 236.001 21.088C235.723 20.8533 235.382 20.736 234.977 20.736C234.571 20.736 234.225 20.8533 233.937 21.088C233.659 21.312 233.446 21.632 233.297 22.048C233.158 22.464 233.089 22.9547 233.089 23.52C233.089 24.0853 233.158 24.576 233.297 24.992C233.446 25.408 233.659 25.7333 233.937 25.968C234.225 26.192 234.571 26.304 234.977 26.304ZM244.992 28.224C244.246 28.224 243.542 28.0373 242.88 27.664C242.23 27.2907 241.702 26.7573 241.296 26.064C240.891 25.36 240.688 24.512 240.688 23.52C240.688 22.528 240.891 21.6853 241.296 20.992C241.702 20.288 242.23 19.7493 242.88 19.376C243.542 19.0027 244.246 18.816 244.992 18.816C245.558 18.816 246.096 18.9227 246.608 19.136C247.12 19.3493 247.579 19.6587 247.984 20.064C248.39 20.4587 248.71 20.9493 248.944 21.536C249.179 22.112 249.296 22.7733 249.296 23.52C249.296 24.512 249.094 25.36 248.688 26.064C248.283 26.7573 247.75 27.2907 247.088 27.664C246.438 28.0373 245.739 28.224 244.992 28.224ZM244.992 26.304C245.398 26.304 245.739 26.192 246.016 25.968C246.304 25.7333 246.518 25.408 246.656 24.992C246.806 24.576 246.88 24.0853 246.88 23.52C246.88 22.9547 246.806 22.464 246.656 22.048C246.518 21.632 246.304 21.312 246.016 21.088C245.739 20.8533 245.398 20.736 244.992 20.736C244.587 20.736 244.24 20.8533 243.952 21.088C243.675 21.312 243.462 21.632 243.312 22.048C243.174 22.464 243.104 22.9547 243.104 23.52C243.104 24.0853 243.174 24.576 243.312 24.992C243.462 25.408 243.675 25.7333 243.952 25.968C244.24 26.192 244.587 26.304 244.992 26.304ZM254.416 31.888C253.712 31.888 253.077 31.8027 252.512 31.632C251.947 31.472 251.499 31.2213 251.168 30.88C250.848 30.5493 250.688 30.1173 250.688 29.584C250.688 29.2107 250.795 28.864 251.008 28.544C251.221 28.224 251.541 27.952 251.968 27.728V27.648C251.733 27.4987 251.536 27.3013 251.376 27.056C251.227 26.8107 251.152 26.5013 251.152 26.128C251.152 25.7973 251.248 25.488 251.44 25.2C251.643 24.9013 251.877 24.656 252.144 24.464V24.4C251.835 24.176 251.557 23.8613 251.312 23.456C251.067 23.0507 250.944 22.5813 250.944 22.048C250.944 21.344 251.109 20.752 251.44 20.272C251.781 19.792 252.229 19.4293 252.784 19.184C253.339 18.9387 253.925 18.816 254.544 18.816C254.811 18.816 255.056 18.8373 255.28 18.88C255.515 18.9227 255.728 18.976 255.92 19.04H259.136V20.768H257.616C257.733 20.928 257.829 21.1253 257.904 21.36C257.979 21.5947 258.016 21.8507 258.016 22.128C258.016 22.8 257.861 23.3653 257.552 23.824C257.243 24.272 256.827 24.608 256.304 24.832C255.781 25.056 255.195 25.168 254.544 25.168C254.384 25.168 254.203 25.152 254 25.12C253.797 25.0773 253.595 25.024 253.392 24.96C253.275 25.0667 253.179 25.1787 253.104 25.296C253.04 25.4027 253.008 25.552 253.008 25.744C253.008 25.968 253.109 26.144 253.312 26.272C253.525 26.4 253.893 26.464 254.416 26.464H255.952C257.029 26.464 257.856 26.6453 258.432 27.008C259.008 27.36 259.296 27.9253 259.296 28.704C259.296 29.312 259.093 29.8507 258.688 30.32C258.293 30.8 257.728 31.1787 256.992 31.456C256.267 31.744 255.408 31.888 254.416 31.888ZM254.544 23.712C254.811 23.712 255.051 23.648 255.264 23.52C255.477 23.392 255.648 23.2053 255.776 22.96C255.904 22.704 255.968 22.4 255.968 22.048C255.968 21.696 255.904 21.4027 255.776 21.168C255.648 20.9227 255.477 20.7413 255.264 20.624C255.051 20.496 254.811 20.432 254.544 20.432C254.288 20.432 254.053 20.496 253.84 20.624C253.627 20.7413 253.456 20.9227 253.328 21.168C253.211 21.4027 253.152 21.696 253.152 22.048C253.152 22.4 253.211 22.704 253.328 22.96C253.456 23.2053 253.627 23.392 253.84 23.52C254.053 23.648 254.288 23.712 254.544 23.712ZM254.768 30.384C255.227 30.384 255.621 30.3253 255.952 30.208C256.293 30.0907 256.56 29.936 256.752 29.744C256.944 29.552 257.04 29.3387 257.04 29.104C257.04 28.784 256.912 28.5653 256.656 28.448C256.4 28.3413 256.032 28.288 255.552 28.288H254.448C254.181 28.288 253.952 28.2773 253.76 28.256C253.568 28.2453 253.387 28.2187 253.216 28.176C253.013 28.336 252.864 28.5013 252.768 28.672C252.683 28.8533 252.64 29.04 252.64 29.232C252.64 29.5947 252.832 29.8773 253.216 30.08C253.6 30.2827 254.117 30.384 254.768 30.384ZM263.035 28.224C262.48 28.224 262.043 28.112 261.723 27.888C261.403 27.6533 261.168 27.3333 261.019 26.928C260.88 26.512 260.811 26.032 260.811 25.488V15.232H263.163V25.584C263.163 25.8507 263.211 26.0373 263.307 26.144C263.414 26.2507 263.52 26.304 263.627 26.304C263.68 26.304 263.728 26.304 263.771 26.304C263.814 26.2933 263.872 26.2827 263.947 26.272L264.235 28.016C264.096 28.0693 263.926 28.1173 263.723 28.16C263.531 28.2027 263.302 28.224 263.035 28.224ZM269.762 28.224C268.93 28.224 268.178 28.0373 267.506 27.664C266.834 27.2907 266.295 26.752 265.89 26.048C265.495 25.344 265.298 24.5013 265.298 23.52C265.298 22.7947 265.41 22.144 265.634 21.568C265.868 20.992 266.183 20.5013 266.578 20.096C266.983 19.68 267.431 19.3653 267.922 19.152C268.423 18.928 268.94 18.816 269.474 18.816C270.295 18.816 270.983 19.0027 271.538 19.376C272.092 19.7387 272.508 20.2453 272.786 20.896C273.074 21.536 273.218 22.272 273.218 23.104C273.218 23.3173 273.207 23.5253 273.186 23.728C273.164 23.92 273.138 24.0747 273.106 24.192H267.586C267.65 24.672 267.794 25.0773 268.018 25.408C268.242 25.7387 268.53 25.9893 268.882 26.16C269.234 26.32 269.634 26.4 270.082 26.4C270.444 26.4 270.786 26.352 271.106 26.256C271.426 26.1493 271.751 25.9947 272.082 25.792L272.882 27.232C272.444 27.5307 271.954 27.7707 271.41 27.952C270.866 28.1333 270.316 28.224 269.762 28.224ZM267.538 22.608H271.202C271.202 22.0107 271.063 21.536 270.786 21.184C270.519 20.8213 270.092 20.64 269.506 20.64C269.196 20.64 268.903 20.7147 268.626 20.864C268.348 21.0027 268.114 21.2213 267.922 21.52C267.73 21.808 267.602 22.1707 267.538 22.608Z" fill="white"/>
<path d="M0 3C0 1.34315 1.34315 0 3 0H40V42H3C1.34315 42 0 40.6569 0 39V3Z" fill="white"/>
<path fill-rule="evenodd" clip-rule="evenodd" d="M28.64 21.2046C28.64 20.5664 28.5827 19.9527 28.4764 19.3636H20V22.845H24.8436C24.635 23.97 24.0009 24.9232 23.0477 25.5614V27.8196H25.9564C27.6582 26.2527 28.64 23.9455 28.64 21.2046Z" fill="#4285F4"/>
<path fill-rule="evenodd" clip-rule="evenodd" d="M20 30C22.43 30 24.4673 29.1941 25.9564 27.8195L23.0477 25.5614C22.2418 26.1014 21.2109 26.4204 20 26.4204C17.6559 26.4204 15.6718 24.8373 14.9641 22.71H11.9573V25.0418C13.4382 27.9832 16.4818 30 20 30Z" fill="#34A853"/>
<path fill-rule="evenodd" clip-rule="evenodd" d="M14.9641 22.71C14.7841 22.17 14.6818 21.5932 14.6818 21C14.6818 20.4068 14.7841 19.83 14.9641 19.29V16.9582H11.9573C11.3477 18.1732 11 19.5477 11 21C11 22.4523 11.3477 23.8268 11.9573 25.0418L14.9641 22.71Z" fill="#FBBC05"/>
<path fill-rule="evenodd" clip-rule="evenodd" d="M20 15.5795C21.3214 15.5795 22.5077 16.0336 23.4405 16.9255L26.0218 14.3441C24.4632 12.8918 22.4259 12 20 12C16.4818 12 13.4382 14.0168 11.9573 16.9582L14.9641 19.29C15.6718 17.1627 17.6559 15.5795 20 15.5795Z" fill="#EA4335"/>
</svg>
