<svg width="377" height="42" viewBox="0 0 377 42" fill="none" xmlns="http://www.w3.org/2000/svg">
<path d="M40 0H374C375.657 0 377 1.34315 377 3V39C377 40.6569 375.657 42 374 42H40V0Z" fill="#3367D6"/>
<path d="M136.992 28.224C136.203 28.224 135.429 28.0747 134.672 27.776C133.915 27.4773 133.248 27.0507 132.672 26.496L134.032 24.864C134.448 25.2587 134.923 25.5787 135.456 25.824C136 26.0587 136.528 26.176 137.04 26.176C137.659 26.176 138.128 26.0533 138.448 25.808C138.768 25.5627 138.928 25.232 138.928 24.816C138.928 24.5173 138.848 24.2827 138.688 24.112C138.539 23.9307 138.331 23.7707 138.064 23.632C137.797 23.4933 137.488 23.3547 137.136 23.216L135.568 22.528C135.173 22.368 134.789 22.1547 134.416 21.888C134.053 21.6107 133.749 21.264 133.504 20.848C133.269 20.432 133.152 19.936 133.152 19.36C133.152 18.7093 133.328 18.128 133.68 17.616C134.032 17.104 134.517 16.6987 135.136 16.4C135.755 16.0907 136.459 15.936 137.248 15.936C137.952 15.936 138.629 16.0693 139.28 16.336C139.931 16.6027 140.496 16.9813 140.976 17.472L139.776 18.944C139.403 18.6347 139.013 18.3947 138.608 18.224C138.203 18.0533 137.749 17.968 137.248 17.968C136.736 17.968 136.325 18.08 136.016 18.304C135.717 18.5173 135.568 18.8213 135.568 19.216C135.568 19.4933 135.653 19.7227 135.824 19.904C135.995 20.0853 136.219 20.2453 136.496 20.384C136.773 20.512 137.077 20.6453 137.408 20.784L138.96 21.408C139.44 21.6 139.856 21.84 140.208 22.128C140.571 22.416 140.848 22.7627 141.04 23.168C141.243 23.5733 141.344 24.064 141.344 24.64C141.344 25.28 141.168 25.872 140.816 26.416C140.475 26.96 139.979 27.3973 139.328 27.728C138.688 28.0587 137.909 28.224 136.992 28.224ZM143.248 28V19.04H145.6V28H143.248ZM144.432 17.584C144.016 17.584 143.686 17.472 143.44 17.248C143.195 17.0133 143.072 16.6987 143.072 16.304C143.072 15.92 143.195 15.6107 143.44 15.376C143.686 15.1413 144.016 15.024 144.432 15.024C144.827 15.024 145.152 15.1413 145.408 15.376C145.664 15.6107 145.792 15.92 145.792 16.304C145.792 16.6987 145.664 17.0133 145.408 17.248C145.152 17.472 144.827 17.584 144.432 17.584ZM151.26 31.888C150.556 31.888 149.921 31.8027 149.356 31.632C148.79 31.472 148.342 31.2213 148.012 30.88C147.692 30.5493 147.532 30.1173 147.532 29.584C147.532 29.2107 147.638 28.864 147.852 28.544C148.065 28.224 148.385 27.952 148.812 27.728V27.648C148.577 27.4987 148.38 27.3013 148.22 27.056C148.07 26.8107 147.996 26.5013 147.996 26.128C147.996 25.7973 148.092 25.488 148.284 25.2C148.486 24.9013 148.721 24.656 148.988 24.464V24.4C148.678 24.176 148.401 23.8613 148.156 23.456C147.91 23.0507 147.788 22.5813 147.788 22.048C147.788 21.344 147.953 20.752 148.284 20.272C148.625 19.792 149.073 19.4293 149.628 19.184C150.182 18.9387 150.769 18.816 151.388 18.816C151.654 18.816 151.9 18.8373 152.124 18.88C152.358 18.9227 152.572 18.976 152.764 19.04H155.98V20.768H154.46C154.577 20.928 154.673 21.1253 154.748 21.36C154.822 21.5947 154.86 21.8507 154.86 22.128C154.86 22.8 154.705 23.3653 154.396 23.824C154.086 24.272 153.67 24.608 153.148 24.832C152.625 25.056 152.038 25.168 151.388 25.168C151.228 25.168 151.046 25.152 150.844 25.12C150.641 25.0773 150.438 25.024 150.236 24.96C150.118 25.0667 150.022 25.1787 149.948 25.296C149.884 25.4027 149.852 25.552 149.852 25.744C149.852 25.968 149.953 26.144 150.156 26.272C150.369 26.4 150.737 26.464 151.26 26.464H152.796C153.873 26.464 154.7 26.6453 155.276 27.008C155.852 27.36 156.14 27.9253 156.14 28.704C156.14 29.312 155.937 29.8507 155.532 30.32C155.137 30.8 154.572 31.1787 153.836 31.456C153.11 31.744 152.252 31.888 151.26 31.888ZM151.388 23.712C151.654 23.712 151.894 23.648 152.108 23.52C152.321 23.392 152.492 23.2053 152.62 22.96C152.748 22.704 152.812 22.4 152.812 22.048C152.812 21.696 152.748 21.4027 152.62 21.168C152.492 20.9227 152.321 20.7413 152.108 20.624C151.894 20.496 151.654 20.432 151.388 20.432C151.132 20.432 150.897 20.496 150.684 20.624C150.47 20.7413 150.3 20.9227 150.172 21.168C150.054 21.4027 149.996 21.696 149.996 22.048C149.996 22.4 150.054 22.704 150.172 22.96C150.3 23.2053 150.47 23.392 150.684 23.52C150.897 23.648 151.132 23.712 151.388 23.712ZM151.612 30.384C152.07 30.384 152.465 30.3253 152.796 30.208C153.137 30.0907 153.404 29.936 153.596 29.744C153.788 29.552 153.884 29.3387 153.884 29.104C153.884 28.784 153.756 28.5653 153.5 28.448C153.244 28.3413 152.876 28.288 152.396 28.288H151.292C151.025 28.288 150.796 28.2773 150.604 28.256C150.412 28.2453 150.23 28.2187 150.06 28.176C149.857 28.336 149.708 28.5013 149.612 28.672C149.526 28.8533 149.484 29.04 149.484 29.232C149.484 29.5947 149.676 29.8773 150.06 30.08C150.444 30.2827 150.961 30.384 151.612 30.384ZM157.655 28V19.04H159.575L159.751 20.224H159.799C160.193 19.84 160.625 19.5093 161.095 19.232C161.564 18.9547 162.103 18.816 162.711 18.816C163.681 18.816 164.385 19.136 164.823 19.776C165.26 20.4053 165.479 21.2853 165.479 22.416V28H163.127V22.704C163.127 22.0107 163.025 21.5253 162.823 21.248C162.631 20.9707 162.311 20.832 161.863 20.832C161.5 20.832 161.18 20.9173 160.903 21.088C160.636 21.2587 160.337 21.5093 160.007 21.84V28H157.655ZM171.53 28V19.04H173.882V28H171.53ZM172.714 17.584C172.298 17.584 171.967 17.472 171.722 17.248C171.476 17.0133 171.354 16.6987 171.354 16.304C171.354 15.92 171.476 15.6107 171.722 15.376C171.967 15.1413 172.298 15.024 172.714 15.024C173.108 15.024 173.434 15.1413 173.69 15.376C173.946 15.6107 174.074 15.92 174.074 16.304C174.074 16.6987 173.946 17.0133 173.69 17.248C173.434 17.472 173.108 17.584 172.714 17.584ZM176.389 28V19.04H178.309L178.485 20.224H178.533C178.928 19.84 179.36 19.5093 179.829 19.232C180.298 18.9547 180.837 18.816 181.445 18.816C182.416 18.816 183.12 19.136 183.557 19.776C183.994 20.4053 184.213 21.2853 184.213 22.416V28H181.861V22.704C181.861 22.0107 181.76 21.5253 181.557 21.248C181.365 20.9707 181.045 20.832 180.597 20.832C180.234 20.832 179.914 20.9173 179.637 21.088C179.37 21.2587 179.072 21.5093 178.741 21.84V28H176.389ZM191.752 28L189.448 19.04H191.784L192.776 23.456C192.851 23.904 192.92 24.3413 192.984 24.768C193.048 25.1947 193.117 25.632 193.192 26.08H193.272C193.368 25.632 193.459 25.1947 193.544 24.768C193.629 24.3307 193.725 23.8933 193.832 23.456L194.92 19.04H197L198.12 23.456C198.227 23.904 198.323 24.3413 198.408 24.768C198.493 25.1947 198.589 25.632 198.696 26.08H198.76C198.845 25.632 198.92 25.1947 198.984 24.768C199.059 24.3413 199.139 23.904 199.224 23.456L200.168 19.04H202.36L200.152 28H197.384L196.44 24.096C196.344 23.6693 196.253 23.248 196.168 22.832C196.093 22.4053 196.008 21.952 195.912 21.472H195.832C195.757 21.952 195.683 22.4053 195.608 22.832C195.533 23.2587 195.448 23.68 195.352 24.096L194.44 28H191.752ZM204.077 28V19.04H206.429V28H204.077ZM205.261 17.584C204.845 17.584 204.514 17.472 204.269 17.248C204.023 17.0133 203.901 16.6987 203.901 16.304C203.901 15.92 204.023 15.6107 204.269 15.376C204.514 15.1413 204.845 15.024 205.261 15.024C205.655 15.024 205.981 15.1413 206.237 15.376C206.493 15.6107 206.621 15.92 206.621 16.304C206.621 16.6987 206.493 17.0133 206.237 17.248C205.981 17.472 205.655 17.584 205.261 17.584ZM212.216 28.224C211.512 28.224 210.941 28.0853 210.504 27.808C210.067 27.52 209.752 27.1253 209.56 26.624C209.368 26.1227 209.272 25.5413 209.272 24.88V20.896H208.008V19.152L209.4 19.04L209.672 16.624H211.608V19.04H213.832V20.896H211.608V24.864C211.608 25.376 211.715 25.7547 211.928 26C212.141 26.2453 212.445 26.368 212.84 26.368C212.989 26.368 213.144 26.3467 213.304 26.304C213.464 26.2613 213.603 26.2187 213.72 26.176L214.12 27.888C213.875 27.9627 213.592 28.0373 213.272 28.112C212.963 28.1867 212.611 28.224 212.216 28.224ZM215.67 28V15.232H218.022V18.448L217.91 20.128C218.262 19.7867 218.668 19.4827 219.126 19.216C219.585 18.9493 220.118 18.816 220.726 18.816C221.697 18.816 222.401 19.136 222.838 19.776C223.276 20.4053 223.494 21.2853 223.494 22.416V28H221.142V22.704C221.142 22.0107 221.041 21.5253 220.838 21.248C220.646 20.9707 220.326 20.832 219.878 20.832C219.516 20.832 219.196 20.9173 218.918 21.088C218.652 21.2587 218.353 21.5093 218.022 21.84V28H215.67ZM234.81 28.224C233.743 28.224 232.778 27.9893 231.914 27.52C231.06 27.0507 230.383 26.3627 229.882 25.456C229.38 24.5493 229.13 23.44 229.13 22.128C229.13 21.1467 229.274 20.2773 229.562 19.52C229.86 18.752 230.271 18.1013 230.794 17.568C231.316 17.0347 231.919 16.6293 232.602 16.352C233.284 16.0747 234.02 15.936 234.81 15.936C235.663 15.936 236.388 16.096 236.986 16.416C237.594 16.7253 238.09 17.072 238.474 17.456L237.21 18.96C236.911 18.6827 236.58 18.448 236.218 18.256C235.866 18.064 235.423 17.968 234.89 17.968C234.228 17.968 233.647 18.1333 233.146 18.464C232.644 18.784 232.255 19.248 231.978 19.856C231.7 20.464 231.562 21.1947 231.562 22.048C231.562 22.912 231.69 23.6533 231.946 24.272C232.212 24.88 232.607 25.3493 233.13 25.68C233.652 26.0107 234.298 26.176 235.066 26.176C235.354 26.176 235.631 26.1387 235.898 26.064C236.164 25.9787 236.378 25.8667 236.538 25.728V23.392H234.442V21.456H238.666V26.8C238.26 27.1947 237.722 27.5307 237.05 27.808C236.378 28.0853 235.631 28.224 234.81 28.224ZM244.742 28.224C243.996 28.224 243.292 28.0373 242.63 27.664C241.98 27.2907 241.452 26.7573 241.046 26.064C240.641 25.36 240.438 24.512 240.438 23.52C240.438 22.528 240.641 21.6853 241.046 20.992C241.452 20.288 241.98 19.7493 242.63 19.376C243.292 19.0027 243.996 18.816 244.742 18.816C245.308 18.816 245.846 18.9227 246.358 19.136C246.87 19.3493 247.329 19.6587 247.734 20.064C248.14 20.4587 248.46 20.9493 248.694 21.536C248.929 22.112 249.046 22.7733 249.046 23.52C249.046 24.512 248.844 25.36 248.438 26.064C248.033 26.7573 247.5 27.2907 246.838 27.664C246.188 28.0373 245.489 28.224 244.742 28.224ZM244.742 26.304C245.148 26.304 245.489 26.192 245.766 25.968C246.054 25.7333 246.268 25.408 246.406 24.992C246.556 24.576 246.63 24.0853 246.63 23.52C246.63 22.9547 246.556 22.464 246.406 22.048C246.268 21.632 246.054 21.312 245.766 21.088C245.489 20.8533 245.148 20.736 244.742 20.736C244.337 20.736 243.99 20.8533 243.702 21.088C243.425 21.312 243.212 21.632 243.062 22.048C242.924 22.464 242.854 22.9547 242.854 23.52C242.854 24.0853 242.924 24.576 243.062 24.992C243.212 25.408 243.425 25.7333 243.702 25.968C243.99 26.192 244.337 26.304 244.742 26.304ZM254.758 28.224C254.011 28.224 253.307 28.0373 252.646 27.664C251.995 27.2907 251.467 26.7573 251.062 26.064C250.657 25.36 250.454 24.512 250.454 23.52C250.454 22.528 250.657 21.6853 251.062 20.992C251.467 20.288 251.995 19.7493 252.646 19.376C253.307 19.0027 254.011 18.816 254.758 18.816C255.323 18.816 255.862 18.9227 256.374 19.136C256.886 19.3493 257.345 19.6587 257.75 20.064C258.155 20.4587 258.475 20.9493 258.71 21.536C258.945 22.112 259.062 22.7733 259.062 23.52C259.062 24.512 258.859 25.36 258.454 26.064C258.049 26.7573 257.515 27.2907 256.854 27.664C256.203 28.0373 255.505 28.224 254.758 28.224ZM254.758 26.304C255.163 26.304 255.505 26.192 255.782 25.968C256.07 25.7333 256.283 25.408 256.422 24.992C256.571 24.576 256.646 24.0853 256.646 23.52C256.646 22.9547 256.571 22.464 256.422 22.048C256.283 21.632 256.07 21.312 255.782 21.088C255.505 20.8533 255.163 20.736 254.758 20.736C254.353 20.736 254.006 20.8533 253.718 21.088C253.441 21.312 253.227 21.632 253.078 22.048C252.939 22.464 252.87 22.9547 252.87 23.52C252.87 24.0853 252.939 24.576 253.078 24.992C253.227 25.408 253.441 25.7333 253.718 25.968C254.006 26.192 254.353 26.304 254.758 26.304ZM264.182 31.888C263.478 31.888 262.843 31.8027 262.278 31.632C261.712 31.472 261.264 31.2213 260.934 30.88C260.614 30.5493 260.454 30.1173 260.454 29.584C260.454 29.2107 260.56 28.864 260.774 28.544C260.987 28.224 261.307 27.952 261.734 27.728V27.648C261.499 27.4987 261.302 27.3013 261.142 27.056C260.992 26.8107 260.918 26.5013 260.918 26.128C260.918 25.7973 261.014 25.488 261.206 25.2C261.408 24.9013 261.643 24.656 261.91 24.464V24.4C261.6 24.176 261.323 23.8613 261.078 23.456C260.832 23.0507 260.71 22.5813 260.71 22.048C260.71 21.344 260.875 20.752 261.206 20.272C261.547 19.792 261.995 19.4293 262.55 19.184C263.104 18.9387 263.691 18.816 264.31 18.816C264.576 18.816 264.822 18.8373 265.046 18.88C265.28 18.9227 265.494 18.976 265.686 19.04H268.902V20.768H267.382C267.499 20.928 267.595 21.1253 267.67 21.36C267.744 21.5947 267.782 21.8507 267.782 22.128C267.782 22.8 267.627 23.3653 267.318 23.824C267.008 24.272 266.592 24.608 266.07 24.832C265.547 25.056 264.96 25.168 264.31 25.168C264.15 25.168 263.968 25.152 263.766 25.12C263.563 25.0773 263.36 25.024 263.158 24.96C263.04 25.0667 262.944 25.1787 262.87 25.296C262.806 25.4027 262.774 25.552 262.774 25.744C262.774 25.968 262.875 26.144 263.078 26.272C263.291 26.4 263.659 26.464 264.182 26.464H265.718C266.795 26.464 267.622 26.6453 268.198 27.008C268.774 27.36 269.062 27.9253 269.062 28.704C269.062 29.312 268.859 29.8507 268.454 30.32C268.059 30.8 267.494 31.1787 266.758 31.456C266.032 31.744 265.174 31.888 264.182 31.888ZM264.31 23.712C264.576 23.712 264.816 23.648 265.03 23.52C265.243 23.392 265.414 23.2053 265.542 22.96C265.67 22.704 265.734 22.4 265.734 22.048C265.734 21.696 265.67 21.4027 265.542 21.168C265.414 20.9227 265.243 20.7413 265.03 20.624C264.816 20.496 264.576 20.432 264.31 20.432C264.054 20.432 263.819 20.496 263.606 20.624C263.392 20.7413 263.222 20.9227 263.094 21.168C262.976 21.4027 262.918 21.696 262.918 22.048C262.918 22.4 262.976 22.704 263.094 22.96C263.222 23.2053 263.392 23.392 263.606 23.52C263.819 23.648 264.054 23.712 264.31 23.712ZM264.534 30.384C264.992 30.384 265.387 30.3253 265.718 30.208C266.059 30.0907 266.326 29.936 266.518 29.744C266.71 29.552 266.806 29.3387 266.806 29.104C266.806 28.784 266.678 28.5653 266.422 28.448C266.166 28.3413 265.798 28.288 265.318 28.288H264.214C263.947 28.288 263.718 28.2773 263.526 28.256C263.334 28.2453 263.152 28.2187 262.982 28.176C262.779 28.336 262.63 28.5013 262.534 28.672C262.448 28.8533 262.406 29.04 262.406 29.232C262.406 29.5947 262.598 29.8773 262.982 30.08C263.366 30.2827 263.883 30.384 264.534 30.384ZM272.801 28.224C272.246 28.224 271.809 28.112 271.489 27.888C271.169 27.6533 270.934 27.3333 270.785 26.928C270.646 26.512 270.577 26.032 270.577 25.488V15.232H272.929V25.584C272.929 25.8507 272.977 26.0373 273.073 26.144C273.179 26.2507 273.286 26.304 273.393 26.304C273.446 26.304 273.494 26.304 273.536 26.304C273.579 26.2933 273.638 26.2827 273.713 26.272L274.001 28.016C273.862 28.0693 273.691 28.1173 273.489 28.16C273.297 28.2027 273.067 28.224 272.801 28.224ZM279.527 28.224C278.695 28.224 277.943 28.0373 277.271 27.664C276.599 27.2907 276.061 26.752 275.655 26.048C275.261 25.344 275.063 24.5013 275.063 23.52C275.063 22.7947 275.175 22.144 275.399 21.568C275.634 20.992 275.949 20.5013 276.343 20.096C276.749 19.68 277.197 19.3653 277.687 19.152C278.189 18.928 278.706 18.816 279.239 18.816C280.061 18.816 280.749 19.0027 281.303 19.376C281.858 19.7387 282.274 20.2453 282.551 20.896C282.839 21.536 282.983 22.272 282.983 23.104C282.983 23.3173 282.973 23.5253 282.951 23.728C282.93 23.92 282.903 24.0747 282.871 24.192H277.351C277.415 24.672 277.559 25.0773 277.783 25.408C278.007 25.7387 278.295 25.9893 278.647 26.16C278.999 26.32 279.399 26.4 279.847 26.4C280.21 26.4 280.551 26.352 280.871 26.256C281.191 26.1493 281.517 25.9947 281.847 25.792L282.647 27.232C282.21 27.5307 281.719 27.7707 281.175 27.952C280.631 28.1333 280.082 28.224 279.527 28.224ZM277.303 22.608H280.967C280.967 22.0107 280.829 21.536 280.551 21.184C280.285 20.8213 279.858 20.64 279.271 20.64C278.962 20.64 278.669 20.7147 278.391 20.864C278.114 21.0027 277.879 21.2213 277.687 21.52C277.495 21.808 277.367 22.1707 277.303 22.608Z" fill="white"/>
<path d="M0 3C0 1.34315 1.34315 0 3 0H40V42H3C1.34315 42 0 40.6569 0 39V3Z" fill="white"/>
<path fill-rule="evenodd" clip-rule="evenodd" d="M28.64 21.2045C28.64 20.5664 28.5827 19.9527 28.4764 19.3636H20V22.845H24.8436C24.635 23.97 24.0009 24.9232 23.0477 25.5614V27.8195H25.9564C27.6582 26.2527 28.64 23.9454 28.64 21.2045Z" fill="#4285F4"/>
<path fill-rule="evenodd" clip-rule="evenodd" d="M20 30C22.43 30 24.4673 29.1941 25.9564 27.8196L23.0477 25.5614C22.2418 26.1014 21.2109 26.4205 20 26.4205C17.6559 26.4205 15.6718 24.8373 14.9641 22.71H11.9573V25.0418C13.4382 27.9832 16.4818 30 20 30Z" fill="#34A853"/>
<path fill-rule="evenodd" clip-rule="evenodd" d="M14.9641 22.71C14.7841 22.17 14.6818 21.5932 14.6818 21C14.6818 20.4068 14.7841 19.83 14.9641 19.29V16.9582H11.9573C11.3477 18.1732 11 19.5477 11 21C11 22.4523 11.3477 23.8268 11.9573 25.0418L14.9641 22.71Z" fill="#FBBC05"/>
<path fill-rule="evenodd" clip-rule="evenodd" d="M20 15.5795C21.3214 15.5795 22.5077 16.0336 23.4405 16.9255L26.0218 14.3441C24.4632 12.8918 22.4259 12 20 12C16.4818 12 13.4382 14.0168 11.9573 16.9582L14.9641 19.29C15.6718 17.1627 17.6559 15.5795 20 15.5795Z" fill="#EA4335"/>
</svg>
