<svg width="18" height="18" viewBox="0 0 18 18" fill="none" xmlns="http://www.w3.org/2000/svg">
<path fill-rule="evenodd" clip-rule="evenodd" d="M16.0001 8C16.0001 4.691 13.3091 2 10.0001 2C6.69113 2 4.00013 4.691 4.00013 8C4.00013 11.309 6.69113 14 10.0001 14C13.3091 14 16.0001 11.309 16.0001 8ZM0.293152 16.293L3.68815 12.897C2.63515 11.543 2.00015 9.846 2.00015 8C2.00015 3.589 5.58915 0 10.0002 0C14.4112 0 18.0002 3.589 18.0002 8C18.0002 12.411 14.4112 16 10.0002 16C8.15415 16 6.45715 15.365 5.10315 14.312L1.70715 17.707C1.51215 17.902 1.25615 18 1.00015 18C0.744152 18 0.488152 17.902 0.293152 17.707C-0.0978489 17.316 -0.0978489 16.684 0.293152 16.293Z" fill="#343C44"/>
</svg>
